<svg width="420" height="156" viewBox="0 0 420 156" fill="none" xmlns="http://www.w3.org/2000/svg">
<path d="M135.444 91.337C138.424 91.337 140.531 91.0463 141.766 90.465C143.002 89.8837 143.619 88.7573 143.619 87.086C143.619 85.778 142.82 84.6517 141.221 83.707C139.623 82.6897 137.188 81.5633 133.918 80.328C131.375 79.3833 129.05 78.4023 126.942 77.385C124.908 76.3677 123.164 75.1687 121.71 73.788C120.257 72.3347 119.131 70.627 118.331 68.665C117.532 66.703 117.132 64.3413 117.132 61.58C117.132 56.2027 119.131 51.9517 123.127 48.827C127.124 45.7023 132.61 44.14 139.586 44.14C143.074 44.14 146.417 44.467 149.614 45.121C152.812 45.7023 155.355 46.3563 157.244 47.083L154.41 59.727C152.521 59.073 150.45 58.4917 148.197 57.983C146.017 57.4743 143.547 57.22 140.785 57.22C135.699 57.22 133.155 58.637 133.155 61.471C133.155 62.125 133.264 62.7063 133.482 63.215C133.7 63.7237 134.136 64.2323 134.79 64.741C135.444 65.177 136.316 65.6857 137.406 66.267C138.569 66.7757 140.022 67.357 141.766 68.011C145.327 69.319 148.27 70.627 150.595 71.935C152.921 73.1703 154.737 74.551 156.045 76.077C157.426 77.5303 158.371 79.1653 158.879 80.982C159.461 82.7987 159.751 84.906 159.751 87.304C159.751 92.972 157.608 97.2593 153.32 100.166C149.106 103.073 143.111 104.526 135.335 104.526C130.249 104.526 125.998 104.09 122.582 103.218C119.24 102.346 116.914 101.619 115.606 101.038L118.331 87.849C121.093 88.939 123.927 89.811 126.833 90.465C129.74 91.0463 132.61 91.337 135.444 91.337ZM162.624 74.333C162.624 70.191 163.278 66.3033 164.586 62.67C165.966 58.964 167.928 55.7667 170.472 53.078C173.015 50.3167 176.103 48.1367 179.737 46.538C183.37 44.9393 187.512 44.14 192.163 44.14C195.215 44.14 198.012 44.4307 200.556 45.012C203.099 45.5207 205.57 46.2837 207.968 47.301L204.589 60.272C203.063 59.6907 201.391 59.182 199.575 58.746C197.758 58.31 195.723 58.092 193.471 58.092C188.675 58.092 185.078 59.5817 182.68 62.561C180.354 65.5403 179.192 69.4643 179.192 74.333C179.192 79.4923 180.282 83.489 182.462 86.323C184.714 89.157 188.602 90.574 194.125 90.574C196.087 90.574 198.194 90.3923 200.447 90.029C202.699 89.6657 204.77 89.0843 206.66 88.285L208.949 101.583C207.059 102.382 204.698 103.073 201.864 103.654C199.03 104.235 195.905 104.526 192.49 104.526C187.258 104.526 182.752 103.763 178.974 102.237C175.195 100.638 172.07 98.4947 169.6 95.806C167.202 93.1173 165.421 89.9563 164.259 86.323C163.169 82.617 162.624 78.6203 162.624 74.333ZM247.862 60.054C246.408 59.6907 244.701 59.3273 242.739 58.964C240.777 58.528 238.669 58.31 236.417 58.31C235.399 58.31 234.164 58.419 232.711 58.637C231.33 58.7823 230.276 58.964 229.55 59.182V103H213.309V48.718C216.215 47.7007 219.631 46.756 223.555 45.884C227.551 44.9393 231.984 44.467 236.853 44.467C237.725 44.467 238.778 44.5397 240.014 44.685C241.249 44.7577 242.484 44.903 243.72 45.121C244.955 45.2663 246.19 45.4843 247.426 45.775C248.661 45.993 249.715 46.2837 250.587 46.647L247.862 60.054ZM248.964 74.769C248.964 69.6823 249.727 65.2497 251.253 61.471C252.851 57.6197 254.922 54.4223 257.466 51.879C260.009 49.3357 262.916 47.41 266.186 46.102C269.528 44.794 272.944 44.14 276.432 44.14C284.57 44.14 291.001 46.647 295.725 51.661C300.448 56.6023 302.81 63.9053 302.81 73.57C302.81 74.5147 302.773 75.5683 302.701 76.731C302.628 77.821 302.555 78.802 302.483 79.674H265.641C266.004 83.0167 267.566 85.669 270.328 87.631C273.089 89.593 276.795 90.574 281.446 90.574C284.425 90.574 287.332 90.3197 290.166 89.811C293.072 89.2297 295.434 88.5393 297.251 87.74L299.431 100.929C298.559 101.365 297.396 101.801 295.943 102.237C294.489 102.673 292.854 103.036 291.038 103.327C289.294 103.69 287.404 103.981 285.37 104.199C283.335 104.417 281.3 104.526 279.266 104.526C274.106 104.526 269.601 103.763 265.75 102.237C261.971 100.711 258.81 98.64 256.267 96.024C253.796 93.3353 251.943 90.1743 250.708 86.541C249.545 82.9077 248.964 78.9837 248.964 74.769ZM287.114 68.556C287.041 67.1753 286.787 65.831 286.351 64.523C285.987 63.215 285.37 62.0523 284.498 61.035C283.698 60.0177 282.645 59.182 281.337 58.528C280.101 57.874 278.539 57.547 276.65 57.547C274.833 57.547 273.271 57.874 271.963 58.528C270.655 59.1093 269.565 59.9087 268.693 60.926C267.821 61.9433 267.13 63.1423 266.622 64.523C266.186 65.831 265.859 67.1753 265.641 68.556H287.114ZM345.536 74.769C345.536 69.755 344.41 65.7583 342.157 62.779C339.904 59.727 336.562 58.201 332.129 58.201C330.676 58.201 329.331 58.2737 328.096 58.419C326.861 58.4917 325.843 58.6007 325.044 58.746V88.067C326.061 88.721 327.369 89.266 328.968 89.702C330.639 90.138 332.311 90.356 333.982 90.356C341.685 90.356 345.536 85.1603 345.536 74.769ZM362.104 74.333C362.104 78.7657 361.559 82.7987 360.469 86.432C359.379 90.0653 357.78 93.19 355.673 95.806C353.566 98.422 350.95 100.457 347.825 101.91C344.7 103.363 341.103 104.09 337.034 104.09C334.781 104.09 332.674 103.872 330.712 103.436C328.75 103 326.861 102.382 325.044 101.583V123.165H308.803V47.628C310.256 47.192 311.928 46.7923 313.817 46.429C315.706 45.993 317.668 45.6297 319.703 45.339C321.81 45.0483 323.918 44.8303 326.025 44.685C328.205 44.467 330.276 44.358 332.238 44.358C336.961 44.358 341.176 45.0847 344.882 46.538C348.588 47.9187 351.713 49.917 354.256 52.533C356.799 55.0763 358.725 58.201 360.033 61.907C361.414 65.613 362.104 69.755 362.104 74.333ZM417.459 45.666C414.189 56.7113 410.774 67.0663 407.213 76.731C403.652 86.3957 399.765 95.7697 395.55 104.853C394.024 108.123 392.498 110.884 390.972 113.137C389.446 115.462 387.775 117.352 385.958 118.805C384.141 120.331 382.07 121.421 379.745 122.075C377.492 122.802 374.84 123.165 371.788 123.165C369.245 123.165 366.883 122.911 364.703 122.402C362.596 121.966 360.852 121.457 359.471 120.876L362.305 107.905C363.976 108.486 365.466 108.886 366.774 109.104C368.082 109.322 369.463 109.431 370.916 109.431C373.823 109.431 376.039 108.632 377.565 107.033C379.164 105.507 380.508 103.363 381.598 100.602C377.892 93.3353 374.186 85.1967 370.48 76.186C366.774 67.1027 363.286 56.9293 360.016 45.666H377.238C377.965 48.5 378.8 51.5883 379.745 54.931C380.762 58.201 381.816 61.5437 382.906 64.959C383.996 68.3017 385.086 71.5717 386.176 74.769C387.339 77.9663 388.429 80.873 389.446 83.489C390.391 80.873 391.372 77.9663 392.389 74.769C393.406 71.5717 394.387 68.3017 395.332 64.959C396.349 61.5437 397.294 58.201 398.166 54.931C399.111 51.5883 399.946 48.5 400.673 45.666H417.459Z" fill="white"/>
<path d="M24.1275 75.0535L79.2892 58.9389L79.1827 74.7902C79.1516 79.4138 76.2325 83.5245 71.8773 85.0774L23.5077 102.324L24.1275 75.0535Z" fill="#DADADA"/>
<path d="M85.4031 4.97363L85.4341 40.0344L52.1558 73.3717L34.6099 55.8568L85.4031 4.97363Z" fill="white"/>
<path fill-rule="evenodd" clip-rule="evenodd" d="M23.474 76.3223L23.4964 102.057L74.2902 51.1747L56.7445 33.6596L29.2014 61.2509C26.0274 64.9603 23.8779 70.2954 23.474 76.3223Z" fill="white"/>
<path d="M17.6469 155.945L17.5794 120.884L50.823 87.5124L68.3871 105.009L17.6469 155.945Z" fill="white"/>
<path fill-rule="evenodd" clip-rule="evenodd" d="M79.5017 84.5319L79.4525 58.7971L28.7117 109.732L46.2756 127.229L73.7899 99.6095C76.9601 95.8967 79.1041 90.5594 79.5017 84.5319Z" fill="white"/>
</svg>
